# xmcd CD database file
#
# Track frame offsets:
#	150
#	23330
#	40298
#	61515
#	82808
#	106213
#	132160
#	156746
#	173954
#	192990
#
# Disc length: 2826 seconds
#
# Revision: 2
# Processed by: cddbd v1.5.2PL0 Copyright (c) Steve Scherf et al.
# Submitted via: CDex 1.70beta3
#
DISCID=750b080a
DTITLE=EGO-WRAPPIN' - ないものねだりのデッドヒート
DYEAR=2010
DGENRE=Pop
TTITLE0=デッドヒート
TTITLE1=Bell 5 Motel
TTITLE2=スカル
TTITLE3=BRAND NEW DAY
TTITLE4=方舟
TTITLE5=黒いセーター
TTITLE6=キリがない
TTITLE7=Heart Beat
TTITLE8=love scene
TTITLE9=moment to moment
EXTD=YEAR: 2010
EXTT0=
EXTT1=
EXTT2=
EXTT3=
EXTT4=
EXTT5=
EXTT6=
EXTT7=
EXTT8=
EXTT9=
PLAYORDER=
